<svg width="93" height="100" viewBox="0 0 93 100" fill="none" xmlns="http://www.w3.org/2000/svg">
<path d="M21.5385 0C19.8558 0 18.4615 1.39423 18.4615 3.07692V7.69231H7.69231C3.46154 7.69231 0 11.1538 0 15.3846V92.3077C0 96.5385 3.46154 100 7.69231 100H84.6154C88.8461 100 92.3077 96.5385 92.3077 92.3077V15.3846C92.3077 11.1538 88.8461 7.69231 84.6154 7.69231H73.8461V3.07692C73.8461 1.39423 72.4519 0 70.7692 0H67.6923C66.0096 0 64.6154 1.39423 64.6154 3.07692V7.69231H27.6923V3.07692C27.6923 1.39423 26.2981 0 24.6154 0H21.5385ZM21.5385 3.07692H24.6154V15.3846H21.5385V3.07692ZM67.6923 3.07692H70.7692V15.3846H67.6923V3.07692ZM7.69231 10.7692H18.4615V15.3846C18.4615 17.0673 19.8558 18.4615 21.5385 18.4615H24.6154C26.2981 18.4615 27.6923 17.0673 27.6923 15.3846V10.7692H64.6154V15.3846C64.6154 17.0673 66.0096 18.4615 67.6923 18.4615H70.7692C72.4519 18.4615 73.8461 17.0673 73.8461 15.3846V10.7692H84.6154C87.1815 10.7692 89.2308 12.8185 89.2308 15.3846V26.1538H3.07692V15.3846C3.07692 12.8185 5.1262 10.7692 7.69231 10.7692ZM3.07692 29.2308H89.2308V92.3077C89.2308 94.8738 87.1815 96.9231 84.6154 96.9231H7.69231C5.1262 96.9231 3.07692 94.8738 3.07692 92.3077V29.2308ZM67.8786 43.3053L41.3401 68.8942L27.7524 54.9579L24.4471 58.1791L41.232 75.4087L71.0817 46.6286L67.8786 43.3053Z" fill="#8CB2DE"/>
</svg>
