<svg width="100" height="100" viewBox="0 0 100 100" fill="none" xmlns="http://www.w3.org/2000/svg">
<path d="M6.06061 1C2.72846 1 0 3.72846 0 7.06061V98.5971L15.7789 82.8182H93.9394C97.2715 82.8182 100 80.0897 100 76.7576V7.06061C100 3.72846 97.2715 1 93.9394 1H6.06061ZM6.06061 4.0303H93.9394C95.6321 4.0303 96.9697 5.3679 96.9697 7.06061V76.7576C96.9697 78.4503 95.6321 79.7879 93.9394 79.7879H14.5241L3.0303 91.2817V7.06061C3.0303 5.3679 4.3679 4.0303 6.06061 4.0303ZM50 20.697C44.1584 20.697 39.3939 25.4614 39.3939 31.303V34.3333H34.8485C33.1913 34.3333 31.8182 35.7064 31.8182 37.3636V57.0606C31.8182 58.7178 33.1913 60.0909 34.8485 60.0909H65.1515C66.8087 60.0909 68.1818 58.7178 68.1818 57.0606V37.3636C68.1818 35.7064 66.8087 34.3333 65.1515 34.3333H60.6061V31.303C60.6061 25.4614 55.8416 20.697 50 20.697ZM50 23.7273C54.2022 23.7273 57.5758 27.1009 57.5758 31.303V34.3333H42.4242V31.303C42.4242 27.1009 45.7978 23.7273 50 23.7273ZM34.8485 37.3636H65.1515V57.0606H34.8485V37.3636ZM50 41.9091C48.325 41.9091 46.9697 43.2644 46.9697 44.9394C46.9697 46.0225 47.5497 47.0168 48.4848 47.5613V52.5152H51.5152V47.5613C52.4503 47.0227 53.0303 46.0225 53.0303 44.9394C53.0303 43.2644 51.675 41.9091 50 41.9091Z" fill="#8CB2DE"/>
</svg>
