<svg width="16" height="16" viewBox="0 0 16 16" fill="none" xmlns="http://www.w3.org/2000/svg">
<rect width="16" height="16" fill="white"/>
<path d="M13 6.5C13 7.25495 12.6995 8.13757 12.2 9.06828C11.7049 9.99097 11.0386 10.9167 10.3624 11.7467C9.68754 12.5749 9.01132 13.2973 8.50317 13.8132C8.30654 14.0128 8.13551 14.181 8 14.312C7.86449 14.181 7.69346 14.0128 7.49683 13.8132C6.98868 13.2973 6.31246 12.5749 5.63762 11.7467C4.96139 10.9167 4.29506 9.99097 3.79996 9.06828C3.30055 8.13757 3 7.25495 3 6.5C3 3.68662 5.23529 1.5 8 1.5C10.7647 1.5 13 3.68662 13 6.5Z" stroke="#8E8E93"/>
<circle cx="8" cy="6.5" r="1.5" fill="#8E8E93"/>
</svg>
